<?xml version="1.0" encoding="UTF-8" standalone="no"?>
<!-- Created with Inkscape (http://www.inkscape.org/) -->

<svg
   xmlns:dc="http://purl.org/dc/elements/1.1/"
   xmlns:cc="http://creativecommons.org/ns#"
   xmlns:rdf="http://www.w3.org/1999/02/22-rdf-syntax-ns#"
   xmlns:svg="http://www.w3.org/2000/svg"
   xmlns="http://www.w3.org/2000/svg"
   xmlns:xlink="http://www.w3.org/1999/xlink"
   xmlns:sodipodi="http://sodipodi.sourceforge.net/DTD/sodipodi-0.dtd"
   xmlns:inkscape="http://www.inkscape.org/namespaces/inkscape"
   width="1024px"
   height="768px"
   id="svg2985"
   version="1.1"
   inkscape:version="0.48.3.1 r9886"
   inkscape:export-filename="/home/cristian/Escritorio/fondo.png"
   inkscape:export-xdpi="99"
   inkscape:export-ydpi="99"
   sodipodi:docname="Nuevo documento 2">
  <defs
     id="defs2987">
    <inkscape:path-effect
       effect="skeletal"
       id="path-effect3267"
       is_visible="true"
       pattern="m 338,202 1,0"
       copytype="single_stretched"
       prop_scale="1"
       scale_y_rel="false"
       spacing="0"
       normal_offset="0"
       tang_offset="0"
       prop_units="false"
       vertical_pattern="false"
       fuse_tolerance="0" />
    <inkscape:path-effect
       effect="spiro"
       id="path-effect3265"
       is_visible="true" />
    <inkscape:path-effect
       effect="skeletal"
       id="path-effect3261"
       is_visible="true"
       pattern="m 758,-223 10,5 0,-10 z"
       copytype="single_stretched"
       prop_scale="1"
       scale_y_rel="false"
       spacing="0"
       normal_offset="0"
       tang_offset="0"
       prop_units="false"
       vertical_pattern="false"
       fuse_tolerance="0" />
    <inkscape:path-effect
       effect="spiro"
       id="path-effect3259"
       is_visible="true" />
    <inkscape:path-effect
       effect="skeletal"
       id="path-effect3255"
       is_visible="true"
       pattern="M 0,5 10,10 10,0 z"
       copytype="single_stretched"
       prop_scale="1"
       scale_y_rel="false"
       spacing="0"
       normal_offset="0"
       tang_offset="0"
       prop_units="false"
       vertical_pattern="false"
       fuse_tolerance="0" />
    <inkscape:path-effect
       effect="spiro"
       id="path-effect3253"
       is_visible="true" />
    <inkscape:path-effect
       effect="skeletal"
       id="path-effect3249"
       is_visible="true"
       pattern="M 0,5 10,10 10,0 z"
       copytype="single_stretched"
       prop_scale="1"
       scale_y_rel="false"
       spacing="0"
       normal_offset="0"
       tang_offset="0"
       prop_units="false"
       vertical_pattern="false"
       fuse_tolerance="0" />
    <inkscape:path-effect
       effect="spiro"
       id="path-effect3247"
       is_visible="true" />
    <inkscape:path-effect
       fuse_tolerance="0"
       vertical_pattern="false"
       prop_units="false"
       tang_offset="0"
       normal_offset="0"
       spacing="0"
       scale_y_rel="false"
       prop_scale="1"
       copytype="single_stretched"
       pattern="m 652,-235 10,5 0,-10 z"
       is_visible="true"
       id="path-effect3059"
       effect="skeletal" />
    <inkscape:path-effect
       is_visible="true"
       id="path-effect3057"
       effect="spiro" />
    <inkscape:path-effect
       effect="skeletal"
       id="path-effect3053"
       is_visible="true"
       pattern="m 1454,-233 10,5 0,-10 z"
       copytype="single_stretched"
       prop_scale="1"
       scale_y_rel="false"
       spacing="0"
       normal_offset="0"
       tang_offset="0"
       prop_units="false"
       vertical_pattern="false"
       fuse_tolerance="0" />
    <inkscape:path-effect
       effect="spiro"
       id="path-effect3051"
       is_visible="true" />
    <inkscape:path-effect
       effect="skeletal"
       id="path-effect3047"
       is_visible="true"
       pattern="m 1454,-233 10,5 0,-10 z"
       copytype="single_stretched"
       prop_scale="1"
       scale_y_rel="false"
       spacing="0"
       normal_offset="0"
       tang_offset="0"
       prop_units="false"
       vertical_pattern="false"
       fuse_tolerance="0" />
    <inkscape:path-effect
       effect="spiro"
       id="path-effect3045"
       is_visible="true" />
    <inkscape:path-effect
       fuse_tolerance="0"
       vertical_pattern="false"
       prop_units="false"
       tang_offset="0"
       normal_offset="0"
       spacing="0"
       scale_y_rel="false"
       prop_scale="1"
       copytype="single_stretched"
       pattern="m 666,-161 c 0,-2.76 2.24,-5 5,-5 2.76,0 5,2.24 5,5 0,2.76 -2.24,5 -5,5 -2.76,0 -5,-2.24 -5,-5 z"
       is_visible="true"
       id="path-effect3041"
       effect="skeletal" />
    <inkscape:path-effect
       is_visible="true"
       id="path-effect3039"
       effect="spiro" />
    <inkscape:path-effect
       effect="skeletal"
       id="path-effect3035"
       is_visible="true"
       pattern="m 632,-155 c 0,-2.76 2.24,-5 5,-5 2.76,0 5,2.24 5,5 0,2.76 -2.24,5 -5,5 -2.76,0 -5,-2.24 -5,-5 z"
       copytype="single_stretched"
       prop_scale="1"
       scale_y_rel="false"
       spacing="0"
       normal_offset="0"
       tang_offset="0"
       prop_units="false"
       vertical_pattern="false"
       fuse_tolerance="0" />
    <inkscape:path-effect
       effect="spiro"
       id="path-effect3033"
       is_visible="true" />
    <inkscape:path-effect
       fuse_tolerance="0"
       vertical_pattern="false"
       prop_units="false"
       tang_offset="0"
       normal_offset="0"
       spacing="0"
       scale_y_rel="false"
       prop_scale="1"
       copytype="single_stretched"
       pattern="m 600,-155 c 0,-2.76 2.24,-5 5,-5 2.76,0 5,2.24 5,5 0,2.76 -2.24,5 -5,5 -2.76,0 -5,-2.24 -5,-5 z"
       is_visible="true"
       id="path-effect3029"
       effect="skeletal" />
    <inkscape:path-effect
       is_visible="true"
       id="path-effect3027"
       effect="spiro" />
    <inkscape:path-effect
       effect="skeletal"
       id="path-effect3023"
       is_visible="true"
       pattern="m 566,-159 c 0,-2.76 2.24,-5 5,-5 2.76,0 5,2.24 5,5 0,2.76 -2.24,5 -5,5 -2.76,0 -5,-2.24 -5,-5 z"
       copytype="single_stretched"
       prop_scale="1"
       scale_y_rel="false"
       spacing="0"
       normal_offset="0"
       tang_offset="0"
       prop_units="false"
       vertical_pattern="false"
       fuse_tolerance="0" />
    <inkscape:path-effect
       effect="spiro"
       id="path-effect3021"
       is_visible="true" />
    <inkscape:path-effect
       fuse_tolerance="0"
       vertical_pattern="false"
       prop_units="false"
       tang_offset="0"
       normal_offset="0"
       spacing="0"
       scale_y_rel="false"
       prop_scale="1"
       copytype="single_stretched"
       pattern="m 538,-157 c 0,-2.76 2.24,-5 5,-5 2.76,0 5,2.24 5,5 0,2.76 -2.24,5 -5,5 -2.76,0 -5,-2.24 -5,-5 z"
       is_visible="true"
       id="path-effect3017"
       effect="skeletal" />
    <inkscape:path-effect
       is_visible="true"
       id="path-effect3015"
       effect="spiro" />
    <inkscape:path-effect
       effect="skeletal"
       id="path-effect3011"
       is_visible="true"
       pattern="m 508,-163 c 0,-2.76 2.24,-5 5,-5 2.76,0 5,2.24 5,5 0,2.76 -2.24,5 -5,5 -2.76,0 -5,-2.24 -5,-5 z"
       copytype="single_stretched"
       prop_scale="1"
       scale_y_rel="false"
       spacing="0"
       normal_offset="0"
       tang_offset="0"
       prop_units="false"
       vertical_pattern="false"
       fuse_tolerance="0" />
    <inkscape:path-effect
       effect="spiro"
       id="path-effect3009"
       is_visible="true" />
    <inkscape:path-effect
       effect="spiro"
       id="path-effect3005"
       is_visible="true" />
    <inkscape:path-effect
       effect="spiro"
       id="path-effect3001"
       is_visible="true" />
    <filter
       id="filter3077">
      <feGaussianBlur
         stdDeviation="0.4098991"
         id="feGaussianBlur3079" />
    </filter>
    <filter
       id="filter3083">
      <feGaussianBlur
         stdDeviation="0.32644532"
         id="feGaussianBlur3085" />
    </filter>
    <filter
       id="filter3089">
      <feGaussianBlur
         stdDeviation="0.75022266"
         id="feGaussianBlur3091" />
    </filter>
    <filter
       id="filter3097">
      <feGaussianBlur
         stdDeviation="0.058461435"
         id="feGaussianBlur3099" />
    </filter>
    <filter
       id="filter3103">
      <feGaussianBlur
         stdDeviation="0.13308872"
         id="feGaussianBlur3105" />
    </filter>
    <filter
       id="filter3109">
      <feGaussianBlur
         stdDeviation="0.24549871"
         id="feGaussianBlur3111" />
    </filter>
    <filter
       id="filter3115">
      <feGaussianBlur
         stdDeviation="0.51298505"
         id="feGaussianBlur3117" />
    </filter>
    <filter
       id="filter3121">
      <feGaussianBlur
         stdDeviation="0.7508478"
         id="feGaussianBlur3123" />
    </filter>
    <filter
       x="-0.10267544"
       width="1.2053509"
       y="-0.10267544"
       height="1.2053509"
       id="filter3127">
      <feGaussianBlur
         stdDeviation="0.81284722"
         id="feGaussianBlur3129" />
    </filter>
    <filter
       id="filter3133">
      <feGaussianBlur
         stdDeviation="0.63191462"
         id="feGaussianBlur3135" />
    </filter>
    <filter
       x="-0.12619647"
       width="1.2523929"
       y="-0.12619647"
       height="1.2523929"
       id="filter3139">
      <feGaussianBlur
         stdDeviation="0.9990554"
         id="feGaussianBlur3141" />
    </filter>
    <filter
       x="-0.1292119"
       width="1.2584238"
       y="-0.1292119"
       height="1.2584238"
       id="filter3145">
      <feGaussianBlur
         stdDeviation="1.0229275"
         id="feGaussianBlur3147" />
    </filter>
    <filter
       x="-0.15023541"
       width="1.3004708"
       y="-0.15023541"
       height="1.3004708"
       id="filter3151">
      <feGaussianBlur
         stdDeviation="1.1893637"
         id="feGaussianBlur3153" />
    </filter>
    <filter
       x="-0.1608627"
       width="1.3217254"
       y="-0.1608627"
       height="1.3217254"
       id="filter3157">
      <feGaussianBlur
         stdDeviation="1.2734964"
         id="feGaussianBlur3159" />
    </filter>
    <filter
       x="-0.19576813"
       width="1.3915363"
       y="-0.19576813"
       height="1.3915363"
       id="filter3163">
      <feGaussianBlur
         stdDeviation="1.5498311"
         id="feGaussianBlur3165" />
    </filter>
    <filter
       x="-0.214554"
       width="1.429108"
       y="-0.214554"
       height="1.429108"
       id="filter3169">
      <feGaussianBlur
         stdDeviation="1.6985525"
         id="feGaussianBlur3171" />
    </filter>
    <filter
       x="-0.20732285"
       width="1.4146457"
       y="-0.20732285"
       height="1.4146457"
       id="filter3175">
      <feGaussianBlur
         stdDeviation="1.6413059"
         id="feGaussianBlur3177" />
    </filter>
    <filter
       x="-0.25967822"
       width="1.5193564"
       y="-0.25967822"
       height="1.5193564"
       id="filter3181">
      <feGaussianBlur
         stdDeviation="2.0557859"
         id="feGaussianBlur3183" />
    </filter>
    <filter
       x="-0.24423149"
       width="1.488463"
       y="-0.24423149"
       height="1.488463"
       id="filter3187">
      <feGaussianBlur
         stdDeviation="1.9334993"
         id="feGaussianBlur3189" />
    </filter>
    <filter
       x="-0.27203873"
       width="1.5440775"
       y="-0.27203873"
       height="1.5440775"
       id="filter3193">
      <feGaussianBlur
         stdDeviation="2.1536399"
         id="feGaussianBlur3195" />
    </filter>
    <filter
       x="-0.30104807"
       width="1.6020961"
       y="-0.30104807"
       height="1.6020961"
       id="filter3199">
      <feGaussianBlur
         stdDeviation="2.3832972"
         id="feGaussianBlur3201" />
    </filter>
    <filter
       x="-0.26481745"
       width="1.5296349"
       y="-0.26481745"
       height="1.5296349"
       id="filter3205">
      <feGaussianBlur
         stdDeviation="2.0964715"
         id="feGaussianBlur3207" />
    </filter>
    <filter
       x="-0.3104535"
       width="1.620907"
       y="-0.3104535"
       height="1.620907"
       id="filter3211">
      <feGaussianBlur
         stdDeviation="2.4577568"
         id="feGaussianBlur3213" />
    </filter>
    <filter
       x="-0.32873527"
       width="1.6574705"
       y="-0.32873527"
       height="1.6574705"
       id="filter3217">
      <feGaussianBlur
         stdDeviation="2.6024875"
         id="feGaussianBlur3219" />
    </filter>
  </defs>
  <sodipodi:namedview
     id="base"
     pagecolor="#ffffff"
     bordercolor="#666666"
     borderopacity="1.0"
     inkscape:pageopacity="0.0"
     inkscape:pageshadow="2"
     inkscape:zoom="0.5"
     inkscape:cx="239.0832"
     inkscape:cy="326.67936"
     inkscape:current-layer="layer1"
     inkscape:document-units="px"
     showgrid="false"
     inkscape:window-width="1366"
     inkscape:window-height="692"
     inkscape:window-x="0"
     inkscape:window-y="24"
     inkscape:window-maximized="1" />
  <metadata
     id="metadata2990">
    <rdf:RDF>
      <cc:Work
         rdf:about="">
        <dc:format>image/svg+xml</dc:format>
        <dc:type
           rdf:resource="http://purl.org/dc/dcmitype/StillImage" />
        <dc:title></dc:title>
      </cc:Work>
    </rdf:RDF>
  </metadata>
  <g
     id="layer1"
     inkscape:label="Layer 1"
     inkscape:groupmode="layer">
    <g
       id="g3269">
      <rect
         inkscape:export-ydpi="99"
         inkscape:export-xdpi="99"
         inkscape:export-filename="/home/cristian/Escritorio/portafolio/fondo.png"
         ry="1.2381834"
         y="14"
         x="10"
         height="740"
         width="1002"
         id="rect2993"
         style="fill:#000000;fill-opacity:1;stroke:none" />
      <path
         inkscape:export-ydpi="99"
         inkscape:export-xdpi="99"
         inkscape:export-filename="/home/cristian/Escritorio/portafolio/fondo.png"
         inkscape:connector-curvature="0"
         id="path2997"
         d="M 1012,283 239.5,753.5 1012,754 z"
         style="fill:#006680;stroke:none;stroke-width:1px;stroke-linecap:butt;stroke-linejoin:miter;stroke-opacity:1" />
      <path
         inkscape:export-ydpi="99"
         inkscape:export-xdpi="99"
         inkscape:export-filename="/home/cristian/Escritorio/portafolio/fondo.png"
         inkscape:connector-curvature="0"
         inkscape:original-d="M 27.34734,22.00904 C -532.5505,386.35544 535.9145,357.83653 246.65266,639.99096"
         inkscape:path-effect="#path-effect3009;#path-effect3011"
         id="path3007"
         d="M 27.34734,22.00904 C 29.948412,21.085989 81.183819,158.7648 141.71209,329.32781 202.24036,499.89082 249.25373,639.06791 246.65266,639.99096 244.05159,640.91401 192.81618,503.2352 132.28791,332.67219 71.759644,162.10918 24.746268,22.932091 27.34734,22.00904 z"
         style="fill:#005544;fill-rule:evenodd;stroke:none" />
      <path
         inkscape:export-ydpi="99"
         inkscape:export-xdpi="99"
         inkscape:export-filename="/home/cristian/Escritorio/portafolio/fondo.png"
         style="fill:#005544;fill-rule:evenodd;stroke:none"
         d="m 57.34734,28.00904 c 2.601072,-0.923051 53.83648,136.75576 114.36475,307.31877 60.52827,170.56301 107.54164,309.7401 104.94057,310.66315 C 274.05159,646.91401 222.81618,509.2352 162.28791,338.67219 101.75964,168.10918 54.746268,28.932091 57.34734,28.00904 z"
         id="path3013"
         inkscape:path-effect="#path-effect3015;#path-effect3017"
         inkscape:original-d="M 57.34734,28.00904 C -502.5505,392.35544 565.9145,363.83653 276.65266,645.99096"
         inkscape:connector-curvature="0" />
      <path
         inkscape:export-ydpi="99"
         inkscape:export-xdpi="99"
         inkscape:export-filename="/home/cristian/Escritorio/portafolio/fondo.png"
         inkscape:connector-curvature="0"
         inkscape:original-d="M 85.34734,26.00904 C -474.5505,390.35544 593.9145,361.83653 304.65266,643.99096"
         inkscape:path-effect="#path-effect3021;#path-effect3023"
         id="path3019"
         d="m 85.34734,26.00904 c 2.601072,-0.923051 53.83648,136.75576 114.36475,307.31877 60.52827,170.56301 107.54164,309.7401 104.94057,310.66315 C 302.05159,644.91401 250.81618,507.2352 190.28791,336.67219 129.75964,166.10918 82.746268,26.932091 85.34734,26.00904 z"
         style="fill:#005544;fill-rule:evenodd;stroke:none" />
      <path
         inkscape:export-ydpi="99"
         inkscape:export-xdpi="99"
         inkscape:export-filename="/home/cristian/Escritorio/portafolio/fondo.png"
         style="fill:#005544;fill-rule:evenodd;stroke:none"
         d="m 119.34734,30.00904 c 2.60107,-0.923051 53.83648,136.75576 114.36475,307.31877 60.52827,170.56301 107.54164,309.7401 104.94057,310.66315 C 336.05159,648.91401 284.81618,511.2352 224.28791,340.67219 163.75964,170.10918 116.74627,30.932091 119.34734,30.00904 z"
         id="path3025"
         inkscape:path-effect="#path-effect3027;#path-effect3029"
         inkscape:original-d="M 119.34734,30.00904 C -440.5505,394.35544 627.9145,365.83653 338.65266,647.99096"
         inkscape:connector-curvature="0" />
      <path
         inkscape:export-ydpi="99"
         inkscape:export-xdpi="99"
         inkscape:export-filename="/home/cristian/Escritorio/portafolio/fondo.png"
         inkscape:connector-curvature="0"
         inkscape:original-d="M 151.34734,30.00904 C -408.5505,394.35544 659.9145,365.83653 370.65266,647.99096"
         inkscape:path-effect="#path-effect3033;#path-effect3035"
         id="path3031"
         d="m 151.34734,30.00904 c 2.60107,-0.923051 53.83648,136.75576 114.36475,307.31877 60.52827,170.56301 107.54164,309.7401 104.94057,310.66315 C 368.05159,648.91401 316.81618,511.2352 256.28791,340.67219 195.75964,170.10918 148.74627,30.932091 151.34734,30.00904 z"
         style="fill:#005544;fill-rule:evenodd;stroke:none" />
      <path
         inkscape:export-ydpi="99"
         inkscape:export-xdpi="99"
         inkscape:export-filename="/home/cristian/Escritorio/portafolio/fondo.png"
         style="fill:#005544;fill-rule:evenodd;stroke:none"
         d="m 185.34734,24.00904 c 2.60107,-0.923051 53.83648,136.75576 114.36475,307.31877 60.52827,170.56301 107.54164,309.7401 104.94057,310.66315 C 402.05159,642.91401 350.81618,505.2352 290.28791,334.67219 229.75964,164.10918 182.74627,24.932091 185.34734,24.00904 z"
         id="path3037"
         inkscape:path-effect="#path-effect3039;#path-effect3041"
         inkscape:original-d="M 185.34734,24.00904 C -374.5505,388.35544 693.9145,359.83653 404.65266,641.99096"
         inkscape:connector-curvature="0" />
      <g
         inkscape:export-ydpi="99"
         inkscape:export-xdpi="99"
         inkscape:export-filename="/home/cristian/Escritorio/portafolio/fondo.png"
         transform="translate(1426,-252)"
         id="g3221">
        <path
           sodipodi:type="arc"
           style="fill:#0088aa;fill-opacity:1;stroke:none"
           id="path3093"
           sodipodi:cx="-683"
           sodipodi:cy="295"
           sodipodi:rx="19"
           sodipodi:ry="19"
           d="m -664,295 c 0,10.49341 -8.50659,19 -19,19 -10.49341,0 -19,-8.50659 -19,-19 0,-10.49341 8.50659,-19 19,-19 10.49341,0 19,8.50659 19,19 z"
           inkscape:tile-cx="-683"
           inkscape:tile-cy="295"
           inkscape:tile-w="38"
           inkscape:tile-h="38"
           inkscape:tile-x0="-702"
           inkscape:tile-y0="276" />
        <use
           height="768"
           width="1024"
           x="0"
           y="0"
           inkscape:tiled-clone-of="#path3093"
           xlink:href="#path3093"
           transform="translate(-0.50636612,0)"
           id="use3095"
           style="opacity:0.99290855;filter:url(#filter3097)" />
        <use
           height="768"
           width="1024"
           x="0"
           y="0"
           inkscape:tiled-clone-of="#path3093"
           xlink:href="#path3093"
           transform="matrix(0,-1,1,0,-977.90904,-350)"
           id="use3101"
           style="opacity:0.97185699;filter:url(#filter3103)" />
        <use
           height="768"
           width="1024"
           x="0"
           y="0"
           inkscape:tiled-clone-of="#path3093"
           xlink:href="#path3093"
           transform="translate(2.2411246,76)"
           id="use3107"
           style="opacity:0.95287577;filter:url(#filter3109)" />
        <use
           height="768"
           width="1024"
           x="0"
           y="0"
           inkscape:tiled-clone-of="#path3093"
           xlink:href="#path3093"
           transform="matrix(-0.0348995,0.99939083,-0.99939083,-0.0348995,-374.54737,988.63929)"
           id="use3113"
           style="opacity:0.98872208;filter:url(#filter3115)" />
        <use
           height="768"
           width="1024"
           x="0"
           y="0"
           inkscape:tiled-clone-of="#path3093"
           xlink:href="#path3093"
           transform="matrix(-0.99939083,-0.0348995,0.0348995,-0.99939083,-1337.1888,604.74394)"
           id="use3119"
           style="opacity:0.96628837;filter:url(#filter3121)" />
        <use
           height="768"
           width="1024"
           x="0"
           y="0"
           inkscape:tiled-clone-of="#path3093"
           xlink:href="#path3093"
           transform="matrix(-0.0348995,0.99939083,-0.99939083,-0.0348995,-372.38557,1064.6393)"
           id="use3125"
           style="opacity:0.95658617;filter:url(#filter3127)" />
        <use
           height="768"
           width="1024"
           x="0"
           y="0"
           inkscape:tiled-clone-of="#path3093"
           xlink:href="#path3093"
           transform="matrix(0.99756405,0.06975647,-0.06975647,0.99756405,94.950763,49.882277)"
           id="use3131"
           style="opacity:0.98528676;filter:url(#filter3133)" />
        <use
           height="768"
           width="1024"
           x="0"
           y="0"
           inkscape:tiled-clone-of="#path3093"
           xlink:href="#path3093"
           transform="matrix(0.06975647,-0.99756405,0.99756405,0.06975647,-852.84047,-367.39441)"
           id="use3137"
           style="opacity:0.9565456;filter:url(#filter3139)" />
        <use
           height="768"
           width="1024"
           x="0"
           y="0"
           inkscape:tiled-clone-of="#path3093"
           xlink:href="#path3093"
           transform="matrix(0.99756405,0.06975647,-0.06975647,0.99756405,97.18552,125.88228)"
           id="use3143"
           style="opacity:0.94742803;filter:url(#filter3145)" />
        <use
           height="768"
           width="1024"
           x="0"
           y="0"
           inkscape:tiled-clone-of="#path3093"
           xlink:href="#path3093"
           transform="matrix(-0.10452846,0.9945219,-0.9945219,-0.10452846,-346.99554,1007.3744)"
           id="use3149"
           style="opacity:0.97211627;filter:url(#filter3151)" />
        <use
           height="768"
           width="1024"
           x="0"
           y="0"
           inkscape:tiled-clone-of="#path3093"
           xlink:href="#path3093"
           transform="matrix(-0.9945219,-0.10452846,0.10452846,-0.9945219,-1278.2837,557.27102)"
           id="use3155"
           style="opacity:0.943934;filter:url(#filter3157)" />
        <use
           height="768"
           width="1024"
           x="0"
           y="0"
           inkscape:tiled-clone-of="#path3093"
           xlink:href="#path3093"
           transform="matrix(-0.10452846,0.9945219,-0.9945219,-0.10452846,-344.97833,1083.3744)"
           id="use3161"
           style="opacity:0.93642566;filter:url(#filter3163)" />
        <use
           height="768"
           width="1024"
           x="0"
           y="0"
           inkscape:tiled-clone-of="#path3093"
           xlink:href="#path3093"
           transform="matrix(0.99026807,0.1391731,-0.1391731,0.99026807,186.58172,100.96615)"
           id="use3167"
           style="opacity:0.95552661;filter:url(#filter3169)" />
        <use
           height="768"
           width="1024"
           x="0"
           y="0"
           inkscape:tiled-clone-of="#path3093"
           xlink:href="#path3093"
           transform="matrix(0.1391731,-0.99026807,0.99026807,0.1391731,-727.95745,-381.36916)"
           id="use3173"
           style="opacity:0.94280246;filter:url(#filter3175)" />
        <use
           height="768"
           width="1024"
           x="0"
           y="0"
           inkscape:tiled-clone-of="#path3093"
           xlink:href="#path3093"
           transform="matrix(0.99026807,0.1391731,-0.1391731,0.99026807,187.26381,176.96615)"
           id="use3179"
           style="opacity:0.91304255;filter:url(#filter3181)" />
        <use
           height="768"
           width="1024"
           x="0"
           y="0"
           inkscape:tiled-clone-of="#path3093"
           xlink:href="#path3093"
           transform="matrix(-0.17364818,0.98480775,-0.98480775,-0.17364818,-321.46642,1022.6499)"
           id="use3185"
           style="opacity:0.95308718;filter:url(#filter3187)" />
        <use
           height="768"
           width="1024"
           x="0"
           y="0"
           inkscape:tiled-clone-of="#path3093"
           xlink:href="#path3093"
           transform="matrix(-0.98480775,-0.17364818,0.17364818,-0.98480775,-1216.3408,508.71658)"
           id="use3191"
           style="opacity:0.93894923;filter:url(#filter3193)" />
        <use
           height="768"
           width="1024"
           x="0"
           y="0"
           inkscape:tiled-clone-of="#path3093"
           xlink:href="#path3093"
           transform="matrix(-0.17364818,0.98480775,-0.98480775,-0.17364818,-319.09135,1098.6499)"
           id="use3197"
           style="opacity:0.91308055;filter:url(#filter3199)" />
        <use
           height="768"
           width="1024"
           x="0"
           y="0"
           inkscape:tiled-clone-of="#path3093"
           xlink:href="#path3093"
           transform="matrix(0.9781476,0.20791169,-0.20791169,0.9781476,274.67763,153.01014)"
           id="use3203"
           style="opacity:0.9384616;filter:url(#filter3205)" />
        <use
           height="768"
           width="1024"
           x="0"
           y="0"
           inkscape:tiled-clone-of="#path3093"
           xlink:href="#path3093"
           transform="matrix(0.20791169,-0.9781476,0.9781476,0.20791169,-600.11052,-391.84876)"
           id="use3209"
           style="opacity:0.92725651;filter:url(#filter3211)" />
        <use
           height="768"
           width="1024"
           x="0"
           y="0"
           inkscape:tiled-clone-of="#path3093"
           xlink:href="#path3093"
           transform="matrix(0.9781476,0.20791169,-0.20791169,0.9781476,275.98042,229.01014)"
           id="use3215"
           style="opacity:0.90578637;filter:url(#filter3217)" />
      </g>
      <path
         inkscape:export-ydpi="99"
         inkscape:export-xdpi="99"
         inkscape:export-filename="/home/cristian/Escritorio/portafolio/fondo.png"
         inkscape:connector-curvature="0"
         inkscape:original-d="m 66.445892,41.278 c 43.367078,-47.43199 45.297398,34.68361 83.166348,45.07059 19.83345,5.44007 14.68289,-43.28278 28.77537,-44.04518 28.84654,-1.56059 39.81417,60.59329 66.02839,16.25584 6.28305,-10.62686 -1.17014,-19.7304 11.41059,-24.6941 15.00351,-5.9196 24.56321,41.15959 36.18347,40.53094 25.47027,-1.37793 6.6666,-37.18398 23.43236,-38.091 18.15195,-0.98202 17.57673,38.70499 33.20637,37.85943 21.84723,-1.18193 -2.1647,-46.62018 18.66114,-47.74685 23.38439,-1.26509 20.49937,42.79572 40.49631,41.71389 15.32749,-0.82921 9.33179,-34.4956 12.28796,-34.65553 27.05477,-1.46365 22.17017,24.63025 42.70944,30.26392 2.84921,0.7815 14.70311,-16.37448 23.16616,-16.83238 8.59798,-0.46515 10.04221,23.53351 16.83237,23.16616 14.72222,-0.79646 14.1233,-31.92225 26.56225,-32.5952 9.26833,-0.50141 17.59449,29.86744 27.25219,32.51643 8.66151,2.37575 10.94283,-28.91763 23.89075,-29.61811 10.18314,-0.5509 16.24199,14.11377 26.33543,15.57064"
         inkscape:path-effect="#path-effect3259;#path-effect3261"
         id="path3257"
         d="m 66.445892,41.278 c -6.286072,10.868137 -8.00415,24.33788 -4.613833,36.485385 3.391631,12.147131 11.853709,22.833865 22.958627,28.930445 11.106218,6.09419 24.715414,7.52088 36.892644,3.82758 12.17601,-3.69722 22.75116,-12.463624 28.65079,-23.802224 10e-6,-7e-6 10e-6,-1.4e-5 10e-6,-2.1e-5 4.30098,-8.295787 6.09612,-17.528863 9.75633,-25.796681 1.83384,-4.129925 4.13808,-8.060524 7.2384,-11.218146 1e-5,-1.1e-5 2e-5,-2.1e-5 3e-5,-3.2e-5 3.09592,-3.148714 7.01567,-5.559834 11.26227,-6.311414 2.86179,-0.524195 5.86199,-0.301549 8.72906,0.423627 2.8697,0.727189 5.61679,1.978355 8.2226,3.49355 0,4e-6 1e-5,8e-6 1e-5,1.2e-5 5.21498,3.029749 9.82554,7.16905 14.88647,10.885957 5.0493,3.746124 10.78824,7.081405 17.28562,8.029442 3.25631,0.462771 6.65746,0.247324 9.84104,-0.847219 3.19121,-1.097637 6.09627,-3.139086 8.09755,-5.956075 10e-6,-1.4e-5 2e-5,-2.9e-5 3e-5,-4.3e-5 1.48632,-2.138256 2.38527,-4.5413 2.98163,-6.911154 0.60613,-2.363861 0.96991,-4.697152 1.46731,-6.910314 0,-1.5e-5 10e-6,-2.9e-5 10e-6,-4.4e-5 0.50804,-2.208588 1.12707,-4.332305 2.17849,-6.136638 1.05118,-1.785525 2.49109,-3.344333 4.2328,-4.087942 1.8893,-0.873912 4.24409,-0.818294 6.29519,-0.08374 2.07216,0.740208 3.9008,2.246879 5.32657,4.062255 2.90028,3.628332 3.92368,8.624172 4.86212,13.65439 0,1.5e-5 0,3e-5 1e-5,4.5e-5 0.85769,5.063823 1.72505,10.527779 4.56965,15.424397 1.44095,2.450207 3.45254,4.652041 6.00697,6.188469 2.57083,1.546348 5.69562,2.254387 8.79193,1.735929 2.39143,-0.439778 4.55863,-1.578397 6.29327,-3.142664 2e-5,-1.2e-5 3e-5,-2.4e-5 4e-5,-3.6e-5 1.72847,-1.556996 3.05469,-3.449622 4.01038,-5.458639 0,-8e-6 10e-6,-1.5e-5 10e-6,-2.3e-5 1.88725,-4.016357 2.50922,-8.274467 3.03444,-12.247006 0.58036,-3.956392 1.10635,-7.784664 2.73589,-10.929393 0,-1.2e-5 1e-5,-2.4e-5 2e-5,-3.6e-5 0.8011,-1.571592 1.82168,-2.996742 3.08521,-4.050779 0,-4e-6 10e-6,-8e-6 10e-6,-1.2e-5 1.25595,-1.045872 2.74709,-1.801474 4.24964,-1.995972 1.72586,-0.271179 3.6274,0.188802 5.27145,1.079899 1.65923,0.900128 3.08434,2.340079 4.23979,3.996469 0,6e-6 0,1.2e-5 1e-5,1.7e-5 2.35115,3.311503 3.34436,7.666499 4.44541,12.155899 1.02073,4.524534 2.2472,9.417471 5.14876,13.776784 10e-6,1.5e-5 2e-5,2.9e-5 3e-5,4.4e-5 1.47192,2.178956 3.43551,4.116318 5.85765,5.489683 2.4379,1.382933 5.33832,2.036558 8.27195,1.658943 2.97723,-0.443133 5.64247,-1.90758 7.63293,-3.976808 1.97687,-2.05483 3.32997,-4.545892 4.10569,-7.135196 1.50389,-5.165552 1.14591,-10.359045 0.6063,-15.081008 -0.44233,-4.715257 -1.01333,-9.208627 -0.007,-13.149698 0.48362,-1.963138 1.26767,-3.809816 2.44221,-5.238675 1.16324,-1.412289 2.68396,-2.535773 4.29142,-2.94155 1.88008,-0.560083 4.14284,-0.166209 6.06237,0.791148 1.95056,0.972567 3.61484,2.692297 4.92493,4.677423 1e-5,1.1e-5 2e-5,2.2e-5 2e-5,3.3e-5 2.6853,3.976186 3.50893,9.316035 4.6582,14.84642 1.00421,5.594333 2.58099,11.742169 6.70514,16.861349 2.11018,2.555968 4.96975,4.613804 8.35757,5.655181 3.43036,1.048685 7.27892,0.759403 10.62061,-1.078263 1.8864,-1.095534 3.42263,-2.59344 4.55333,-4.301373 0,-8e-6 10e-6,-1.7e-5 2e-5,-2.5e-5 1.12752,-1.699422 1.90344,-3.530542 2.3865,-5.370003 0,-1.8e-5 1e-5,-3.6e-5 1e-5,-5.3e-5 0.94062,-3.674227 0.98158,-7.228506 0.94686,-10.453763 0.0262,-3.218004 -0.0105,-6.195167 0.71475,-8.726338 0.34966,-1.263103 0.82338,-2.434717 1.48077,-3.392464 0.65408,-0.948739 1.44793,-1.760001 2.3281,-2.241915 1.27874,-0.782659 3.06113,-0.974718 4.73296,-0.706759 1.70351,0.272427 3.40386,1.176811 4.91976,2.374072 3.10466,2.370143 5.12765,6.405325 7.28047,10.660672 2.0418,4.339515 4.32208,9.178391 8.25783,13.317311 10e-6,1.3e-5 2e-5,2.6e-5 4e-5,3.9e-5 1.99527,2.064566 4.48602,3.798595 7.39717,4.87676 2.93612,1.089207 6.26115,1.291148 9.49202,0.357986 3.27602,-1.076859 5.88026,-3.038064 7.80816,-5.231914 1.94443,-2.143047 3.41292,-4.320839 4.82973,-6.171777 1.45069,-1.813237 2.80838,-3.415549 4.33178,-4.293483 10e-6,-6e-6 2e-5,-1.1e-5 3e-5,-1.7e-5 0.74691,-0.450134 1.49999,-0.789929 2.21542,-0.927507 0.7066,-0.134368 1.40259,-0.15394 1.95591,0.007 0.56238,0.123851 1.16681,0.478723 1.73859,0.936977 0.57791,0.466386 1.09988,1.131113 1.58424,1.894042 10e-6,10e-6 2e-5,1.9e-5 2e-5,2.9e-5 0.99866,1.521855 1.59268,3.62406 2.33187,5.98879 0.67694,2.392168 1.51312,5.111268 3.06846,7.860564 1.54477,2.838578 4.21597,5.338862 7.87751,6.590225 2.90141,0.822684 5.85854,0.59002 8.42688,-0.507198 2e-5,-9e-6 4e-5,-1.8e-5 6e-5,-2.6e-5 2.53634,-1.085306 4.6299,-2.763709 6.18756,-4.750248 1e-5,-1.6e-5 2e-5,-3.2e-5 4e-5,-4.8e-5 3.02565,-3.984607 4.37506,-8.429679 5.14588,-12.392815 0.90626,-3.904598 1.45073,-7.448846 2.91902,-10.057058 0,-1.1e-5 10e-6,-2.1e-5 10e-6,-3.2e-5 0.71029,-1.300766 1.53398,-2.442187 2.50467,-3.190708 0,-3e-6 0,-6e-6 10e-6,-9e-6 0.95318,-0.729275 2.02497,-1.257496 2.97147,-1.299671 0.92126,-0.121165 2.03438,0.184559 3.0513,0.702159 1.0373,0.530019 1.99931,1.453847 2.85491,2.543877 1.77557,2.169964 2.70643,5.400122 3.77973,8.952765 0,7e-6 0,1.4e-5 10e-6,2.2e-5 0.9646,3.60417 2.06348,7.710853 4.38185,11.771823 1.18053,2.030469 2.76515,3.952281 4.78524,5.569287 2.03298,1.631754 4.54641,2.78136 7.35877,3.204349 2e-5,3e-6 4e-5,6e-6 7e-5,9e-6 2.50422,0.322581 4.96249,0.01557 7.18473,-0.812407 2.21103,-0.823361 4.16288,-2.042675 5.79644,-3.518831 3.21992,-2.978214 5.34244,-6.538901 6.76721,-10.006035 1.46837,-3.428341 2.46662,-6.688084 3.66602,-9.500664 1.24447,-2.774663 2.55445,-5.263944 4.35068,-6.813448 10e-6,-7e-6 2e-5,-1.4e-5 2e-5,-2.1e-5 1.72781,-1.603839 4.08127,-2.663609 6.41516,-2.8949 2.33239,-0.245055 4.83963,0.31683 6.8349,1.52604 2.00241,1.197156 3.66337,3.142271 4.52923,5.295555 0.87894,2.147857 1.03973,4.68892 0.44333,6.919161 l 9.68856,2.476238 c 1.09599,-4.391409 0.74293,-9.020717 -0.99742,-13.185526 -1.75343,-4.15938 -4.80594,-7.642102 -8.68668,-9.923314 -3.88786,-2.269157 -8.40816,-3.221226 -12.86928,-2.718868 -4.45961,0.516122 -8.63645,2.461913 -11.89484,5.532263 -3.14233,3.080023 -5.17327,6.676725 -6.53448,10.149648 -1.40639,3.435316 -2.3598,6.682085 -3.54013,9.483573 -1.22379,2.762345 -2.53156,5.249107 -4.34462,6.797525 -0.883,0.78722 -1.8341,1.42515 -2.7987,1.772842 0,4e-6 -1e-5,7e-6 -2e-5,1e-5 -0.9532,0.342999 -1.94816,0.508313 -2.7984,0.381246 -0.96514,-0.08338 -2.02909,-0.599692 -3.00252,-1.310469 -10e-6,-6e-6 -10e-6,-1.2e-5 -2e-5,-1.8e-5 -0.98656,-0.725716 -1.8563,-1.806849 -2.63421,-3.046346 -1.59862,-2.479093 -2.43314,-5.871968 -3.57049,-9.595623 -1.02858,-3.77496 -2.50065,-7.980863 -5.379,-11.8485 -10e-6,-1.6e-5 -3e-5,-3.2e-5 -4e-5,-4.8e-5 -1.47134,-1.928748 -3.39241,-3.632047 -5.72474,-4.883412 -2.35232,-1.263576 -5.11112,-1.866829 -7.98155,-1.604162 -2.9104,0.348257 -5.50322,1.535467 -7.5439,3.268906 -2.02351,1.714485 -3.54912,3.759898 -4.61796,5.903889 -10e-6,1.7e-5 -2e-5,3.4e-5 -3e-5,5.1e-5 -2.09007,4.281567 -2.84107,8.528444 -3.55654,12.206782 -10e-6,1.5e-5 -10e-6,2.9e-5 -10e-6,4.4e-5 -0.85081,3.619265 -1.61255,6.924344 -3.41276,9.008805 -0.85523,1.047923 -1.84517,1.920501 -2.88595,2.329905 0,4e-6 -10e-6,7e-6 -2e-5,10e-6 -1.00808,0.397178 -2.13803,0.556929 -2.95173,0.274195 -1.12578,-0.173087 -2.27162,-1.442011 -3.27209,-2.901018 -0.99101,-1.550173 -1.59692,-3.677809 -2.36778,-6.068239 -0.7086,-2.417852 -1.6197,-5.151259 -3.27257,-7.864801 -0.84138,-1.354745 -1.92985,-2.643425 -3.28052,-3.765358 -1.35672,-1.130005 -3.00668,-1.992483 -4.87109,-2.462277 -1.87685,-0.43349 -3.74836,-0.41263 -5.4847,-0.0074 -1.72758,0.402025 -3.29603,1.092499 -4.66455,1.978179 -2e-5,1.1e-5 -4e-5,2.2e-5 -5e-5,3.3e-5 -2.70748,1.793724 -4.71282,4.027798 -6.29117,6.197395 -1.61233,2.132002 -2.91295,4.150254 -4.33759,5.707053 -1.44075,1.505549 -2.90633,2.780002 -4.41323,3.171853 -1.41,0.49193 -3.1797,0.353882 -4.81824,-0.182045 -1.66428,-0.547242 -3.25081,-1.674084 -4.674,-3.05779 -1e-5,-4e-6 -1e-5,-9e-6 -2e-5,-1.3e-5 -2.90144,-2.757905 -4.78469,-6.947029 -7.02722,-11.322901 -1e-5,-1.4e-5 -2e-5,-2.8e-5 -2e-5,-4.3e-5 -2.13131,-4.459634 -4.8546,-9.278551 -9.33408,-12.973503 -2.27609,-1.835221 -5.05177,-3.190457 -8.13486,-3.732664 -3.11365,-0.546487 -6.43642,-0.04298 -9.35019,1.6212 -1.90052,1.140954 -3.43348,2.677776 -4.55168,4.416969 -1.11496,1.730291 -1.87174,3.581949 -2.33383,5.43459 0,1.7e-5 -1e-5,3.5e-5 -1e-5,5.3e-5 -0.89827,3.700396 -0.89749,7.250512 -0.82856,10.471946 0.008,3.214178 0.076,6.188544 -0.62646,8.740754 -0.33847,1.273716 -0.80508,2.461393 -1.46254,3.441631 -1e-5,9e-6 -1e-5,1.9e-5 -2e-5,2.8e-5 -0.65421,0.971598 -1.45807,1.809327 -2.36248,2.319155 -1.5071,0.951515 -3.69653,1.079517 -5.63692,0.564428 -1.98513,-0.523039 -3.85121,-1.896028 -5.36045,-3.608056 -3.11503,-3.417184 -4.31447,-8.637245 -5.52099,-14.015047 -1.06163,-5.442578 -2.23913,-11.481238 -5.68077,-16.8728 0,-1.5e-5 -10e-6,-3e-5 -2e-5,-4.5e-5 -1.75318,-2.69843 -4.19156,-5.06714 -7.23169,-6.62681 -3.06963,-1.574101 -6.72666,-2.068426 -10.23294,-1.116159 -2.92869,0.867855 -5.40275,2.6608 -7.16547,4.941408 -1.75188,2.264625 -2.86608,4.860291 -3.44237,7.488708 -1.11311,5.242305 -0.52509,10.328401 0.0478,14.98318 0.4756,4.647859 0.95345,9.123399 -0.26193,12.981692 -0.58389,1.922511 -1.49685,3.71799 -2.79617,5.050122 -1.28512,1.317094 -2.94557,2.301658 -4.63219,2.525655 -1.65016,0.278063 -3.5026,-0.154304 -5.11849,-1.009198 -1.63237,-0.864858 -3.05109,-2.273219 -4.21265,-3.903914 -2.36554,-3.260185 -3.40348,-7.604975 -4.55323,-12.085338 0,-8e-6 0,-1.5e-5 0,-2.3e-5 -1.06942,-4.515512 -2.35599,-9.39714 -5.29536,-13.688914 -1.48974,-2.145135 -3.46037,-4.03842 -5.86592,-5.357788 -2.42001,-1.328005 -5.27824,-1.928618 -8.13204,-1.515947 -2.46161,0.397443 -4.69233,1.517744 -6.47729,3.082981 -1e-5,1.2e-5 -2e-5,2.4e-5 -4e-5,3.6e-5 -1.77763,1.557313 -3.139,3.458624 -4.11482,5.480138 0,8e-6 -10e-6,1.6e-5 -10e-6,2.4e-5 -1.92437,4.041673 -2.54007,8.316383 -3.02234,12.30641 0,7e-6 0,1.5e-5 0,2.3e-5 -0.53741,3.973913 -0.9904,7.817986 -2.54392,11.042923 -10e-6,1.2e-5 -10e-6,2.5e-5 -2e-5,3.7e-5 -0.76466,1.611528 -1.75282,3.088935 -3.00326,4.214121 0,4e-6 -1e-5,8e-6 -1e-5,1.3e-5 -1.24402,1.11768 -2.74185,1.954518 -4.2941,2.230734 -1.98639,0.404333 -4.21927,-0.11199 -6.10395,-1.179801 -1.90226,-1.078417 -3.48572,-2.81412 -4.7091,-4.791192 -2.48433,-3.958395 -3.25545,-9.004817 -4.24866,-14.108732 -0.91234,-5.136834 -2.23429,-10.651132 -5.71377,-15.152557 -1.76401,-2.24936 -4.12803,-4.104222 -6.91802,-5.112214 -2.80937,-1.013041 -6.00866,-1.000128 -8.821,0.264357 -2.51553,1.192664 -4.43234,3.227452 -5.68257,5.51338 -1.25046,2.26795 -1.95737,4.694457 -2.44958,7.055513 0,8e-6 0,1.6e-5 0,2.3e-5 -0.50286,2.356564 -0.83369,4.659587 -1.37116,6.831705 -0.5472,2.165989 -1.26832,4.24268 -2.4576,5.941444 -1.54115,2.26311 -3.94256,3.969353 -6.59235,4.930595 -2.65822,0.964619 -5.61287,1.170458 -8.49525,0.806583 -5.77967,-0.705211 -11.15226,-3.815806 -16.12268,-7.354194 -4.95976,-3.568312 -9.69797,-7.711273 -15.21937,-10.863659 -2.76233,-1.575838 -5.72766,-2.877992 -8.86895,-3.647253 -3.1437,-0.771216 -6.46874,-0.967839 -9.69583,-0.354458 -4.78252,0.935317 -9.05212,3.598667 -12.34186,7.052531 -1e-5,1.1e-5 -2e-5,2.3e-5 -4e-5,3.4e-5 -3.28649,3.446168 -5.67571,7.596816 -7.51169,11.889113 -3.67969,8.577242 -5.3497,17.771492 -9.44012,25.822409 -1e-5,1.3e-5 -2e-5,2.7e-5 -2e-5,4e-5 -5.5676,10.99988 -15.75394,19.658395 -27.56665,23.380525 -11.8115,3.72604 -25.17613,2.4916 -36.146366,-3.37817 C 74.205777,100.11304 65.711606,89.653741 62.222254,77.652202 58.73159,65.651038 60.277253,52.213218 66.445892,41.278 z"
         style="fill:#d7f4d7;fill-rule:evenodd;stroke:none" />
      <path
         inkscape:export-ydpi="99"
         inkscape:export-xdpi="99"
         inkscape:export-filename="/home/cristian/Escritorio/portafolio/fondo.png"
         inkscape:connector-curvature="0"
         inkscape:original-d="m 49.116208,192.22622 c -12.55443,18.31444 11.409605,195.66343 9.594152,197.2307 -3.104476,2.68007 -27.993584,-29.55815 -33.908871,-2.4878 -4.529985,20.73076 23.413404,63.54098 24.412735,49.92011 0.310287,-4.22914 -31.619746,-11.51453 -18.683457,8.65611 5.153037,8.03477 25.750684,4.35066 25.052261,13.87029 -0.679449,9.26069 -28.945944,-0.92959 -26.662023,8.07075 1.385318,5.45917 26.925865,15.98939 31.182506,12.31466 8.623196,-7.44435 -22.412975,-21.75366 -31.036161,-14.30931 -39.254236,33.88796 35.797226,58.74915 36.673247,46.80891 0.539609,-7.35486 -22.728974,-11.66555 -27.632251,-6.03807 -19.307171,22.15873 32.121122,54.18766 32.830309,44.52157 2.348634,-32.01177 -48.639083,-9.37627 -15.626382,48.98791"
         inkscape:path-effect="#path-effect3265;#path-effect3267"
         id="path3263"
         d="m 49.116208,192.22622 c 17.438332,-14.04388 38.814944,-23.15667 61.022232,-26.01361 22.20729,-2.85694 45.19436,0.54851 65.61949,9.72129 20.42513,9.17278 38.24151,24.09187 50.8591,42.58842 12.61758,18.49654 20.00746,40.52815 21.09534,62.892 0,1e-5 0,2e-5 0,3e-5 1.08787,22.36386 -4.12875,45.00871 -14.89151,64.64258 -10.76275,19.63387 -27.04697,36.21175 -46.48536,47.32366 -1e-5,1e-5 -1e-5,1e-5 -2e-5,2e-5 -19.4384,11.11191 -41.98641,16.73239 -64.36614,16.04435 -22.379734,-0.68804 -44.539897,-7.68302 -63.25898,-19.96804 -5.450609,-3.57714 -10.806872,-7.67908 -17.160936,-9.13886 -3.176692,-0.72982 -6.569485,-0.74788 -9.644528,0.33291 -3.073573,1.08027 -5.80045,3.33216 -7.103407,6.31815 -1.070512,2.4533 -1.14045,5.2832 -0.446693,7.86842 0.693911,2.58579 2.117279,4.93919 3.887302,6.94788 3.540225,4.01759 8.350523,6.63947 12.862658,9.52301 1.5e-5,1e-5 3.1e-5,2e-5 4.7e-5,3e-5 2.256069,1.44178 4.467965,2.97366 6.428892,4.79666 7e-6,0 1.4e-5,10e-6 2.1e-5,2e-5 1.960881,1.82296 3.672177,3.95192 4.783494,6.38774 1.111138,2.43542 1.598881,5.19522 1.121602,7.82925 -3e-6,2e-5 -7e-6,4e-5 -10e-6,6e-5 -0.477092,2.63292 -1.972926,5.12137 -4.224578,6.56704 -1.540855,0.9893 -3.356995,1.46571 -5.167433,1.74007 -1.810525,0.27437 -3.645946,0.36146 -5.454327,0.64962 -1.808281,0.28815 -3.619698,0.79333 -5.137521,1.8176 -1.5e-5,10e-6 -3.1e-5,2e-5 -4.6e-5,3e-5 -0.758906,0.51214 -1.436719,1.15199 -1.95282,1.90821 -5e-6,1e-5 -10e-6,1e-5 -1.5e-5,2e-5 -0.516089,0.75621 -0.867543,1.63093 -0.971295,2.54056 -0.149622,1.31179 0.226169,2.6592 0.941522,3.76891 5e-6,10e-6 10e-6,2e-5 1.5e-5,2e-5 0.715517,1.10995 1.756223,1.99066 2.918879,2.61691 2.325335,1.2525 5.051373,1.49164 7.691227,1.57601 2.640037,0.0844 5.330162,0.0461 7.855135,0.82162 1.262451,0.38775 2.472947,0.98243 3.479563,1.83733 1.006482,0.85479 1.802768,1.9799 2.165912,3.24946 3e-6,1e-5 5e-6,2e-5 8e-6,3e-5 0.377099,1.31837 0.272949,2.75742 -0.217267,4.03804 -0.490282,1.28079 -1.355419,2.40496 -2.418986,3.27078 -2.126706,1.73127 -4.960329,2.39647 -7.702576,2.41307 -2.743074,0.0166 -5.450064,-0.55862 -8.147772,-1.05572 -2.697666,-0.49709 -5.451526,-0.91952 -8.175394,-0.59542 -10e-6,0 -1.9e-5,0 -2.8e-5,0 -3.772626,0.44889 -7.338734,2.37455 -9.850836,5.22473 -2.512341,2.85046 -3.969362,6.59626 -4.133418,10.39232 -0.164069,3.79635 0.949686,7.62561 3.049128,10.79287 2.09957,3.16745 5.166965,5.67054 8.655801,7.17684 3.48899,1.50637 7.387474,2.02329 11.160618,1.56987 9e-6,0 1.8e-5,0 2.8e-5,0 3.773285,-0.45344 7.417201,-1.86717 10.562225,-4.00073 1.6e-5,-1e-5 3.1e-5,-3e-5 4.6e-5,-4e-5 6.286952,-4.26505 10.424955,-11.35855 11.738914,-18.8412 0.807312,-4.59743 0.599982,-9.42548 -1.010812,-13.80651 -1.610375,-4.37989 -4.686866,-8.28537 -8.784034,-10.5192 -2.049237,-1.11726 -4.334775,-1.81141 -6.663548,-1.96786 -2.328714,-0.15645 -4.698924,0.22955 -6.836382,1.16692 -1.7e-5,10e-6 -3.4e-5,2e-5 -5.1e-5,2e-5 -2.137364,0.93734 -4.036679,2.42985 -5.409512,4.31724 -1.372782,1.88733 -2.210699,4.16945 -2.331822,6.50008 -0.156183,3.00527 0.879526,6.00838 2.602052,8.47596 5e-6,10e-6 10e-6,2e-5 1.5e-5,3e-5 1.722905,2.46811 4.102698,4.42902 6.703312,5.94453 5.201494,3.03119 11.203508,4.31497 16.873002,6.33993 2.834729,1.01247 5.6179,2.2263 8.115471,3.90645 1.5e-5,2e-5 3e-5,3e-5 4.6e-5,4e-5 2.497384,1.68004 4.709611,3.84917 6.157549,6.4879 1.447563,2.63806 2.091129,5.77123 1.485905,8.71884 -0.302698,1.47423 -0.9134,2.88917 -1.812233,4.09626 -5e-6,10e-6 -1.1e-5,10e-6 -1.6e-5,2e-5 -0.898814,1.20706 -2.087888,2.20299 -3.451856,2.83895 -2.200361,1.02593 -4.761831,1.07814 -7.134851,0.56541 -2.3736,-0.51286 -4.596486,-1.55641 -6.758608,-2.66195 -2.162138,-1.10555 -4.297963,-2.286 -6.584641,-3.10343 -2.286437,-0.81734 -4.763205,-1.26145 -7.154151,-0.8381 -2.994133,0.53015 -5.679614,2.44126 -7.341785,4.98744 -5e-6,1e-5 -10e-6,2e-5 -1.5e-5,3e-5 -1.662728,2.54705 -2.33305,5.68737 -2.071176,8.71781 0.261919,3.03096 1.424446,5.9513 3.137409,8.46547 6e-6,10e-6 1.1e-5,2e-5 1.6e-5,3e-5 1.713095,2.51435 3.964113,4.63537 6.451769,6.38701 4.975383,3.50333 10.814897,5.52111 16.524647,7.62503 5.709648,2.10388 11.488148,4.40368 16.129444,8.33875 4.163861,3.53028 7.253879,8.31448 8.759294,13.5618 1.505416,5.24732 1.421718,10.94203 -0.23726,16.14284 -1.658977,5.20081 -4.888262,9.89213 -9.154075,13.29851 -4.265812,3.40639 -9.555369,5.51763 -14.994341,5.98476"
         style="fill:#ddff55;fill-rule:evenodd;stroke:none" />
    </g>
  </g>
</svg>
